<svg xmlns="http://www.w3.org/2000/svg" id="vidrio-salud" width="97.997" height="97.997" viewBox="0 0 97.997 97.997"><path id="Path_10102" data-name="Path 10102" d="M97.81,71.625A4.083,4.083,0,0,0,92.7,68.938l-5.308,1.633L83.59,59.4a20.222,20.222,0,0,0,9.505-23.342L85.57,13.7A12.343,12.343,0,0,0,70.557,5.446L54.829,9.831A12.11,12.11,0,0,0,49,13.481a12.11,12.11,0,0,0-5.83-3.65L27.437,5.446a12.281,12.281,0,0,0-14.972,8.125L4.842,36.259a20.234,20.234,0,0,0,9.652,23.2L10.64,70.6,5.312,68.938a4.087,4.087,0,1,0-2.45,7.8l8.819,2.74c.061,0,.1.069.159.094s.212.024.318.053l8.9,2.764a4.083,4.083,0,1,0,2.425-7.8l-5.046-1.572L22.26,61.993a20.343,20.343,0,0,0,2.282.163A20.415,20.415,0,0,0,44.1,47.426L49,32.907l4.83,14.29a20.415,20.415,0,0,0,19.627,14.96,20.075,20.075,0,0,0,2.372-.163l3.748,11.024L74.5,74.593a4.083,4.083,0,1,0,2.425,7.8l8.88-2.756c.106-.029.216,0,.323-.053s.106-.078.171-.1l8.827-2.74a4.083,4.083,0,0,0,2.687-5.116ZM54.54,19.662a4.038,4.038,0,0,1,2.482-1.968l15.723-4.381a4.083,4.083,0,0,1,1.078-.151,4.177,4.177,0,0,1,3.969,3.017L80.9,25.411H55.083l-.878-2.6A4.083,4.083,0,0,1,54.54,19.662Zm-30.373-6.5a4.112,4.112,0,0,1,1.082.147l15.727,4.385a4.083,4.083,0,0,1,2.858,4.993l-.919,2.723H17.1l3.144-9.35a4.116,4.116,0,0,1,3.924-2.9ZM36.309,45.009A12.249,12.249,0,0,1,13.853,47.74a12.04,12.04,0,0,1-1.192-9.08l1.69-5.083H40.164ZM67.47,52.391a12.338,12.338,0,0,1-5.843-7.59L57.835,33.577H83.651l1.633,4.875A12.249,12.249,0,0,1,67.458,52.407Z" transform="translate(0.001 15.42)" fill="#1d2758"></path><path id="Path_10103" data-name="Path 10103" d="M17.253,15.925a4.083,4.083,0,0,0,5.5-1.85L26.836,5.91a4.085,4.085,0,0,0-7.308-3.65l-4.083,8.166a4.083,4.083,0,0,0,1.809,5.5Z" transform="translate(46.253 0.001)" fill="#1d2758"></path><path id="Path_10104" data-name="Path 10104" d="M10.5,14.076a4.094,4.094,0,0,0,7.329-3.65L13.744,2.26A4.085,4.085,0,0,0,6.436,5.91Z" transform="translate(18.516 0.001)" fill="#1d2758"></path><path id="Path_10105" data-name="Path 10105" d="M15.083,16.331a4.083,4.083,0,0,0,4.083-4.083V4.083a4.083,4.083,0,0,0-8.166,0v8.166A4.083,4.083,0,0,0,15.083,16.331Z" transform="translate(33.917 0.003)" fill="#1d2758"></path></svg>